# xmcd
#
# Track frame offsets:
#	150
#	14895
#	33130
#	51168
#	68076
#	87928
#	105214
#	118506
#	135854
#	153509
#	170387
#	184555
#	202728
#	220969
#	237258
#	253483
#	268819
#	283870
#	299446
#
# Disc length: 4207 seconds
#
# Revision: 2
# Processed by: cddbd v1.5.2PL0 Copyright (c) Steve Scherf et al.
# Submitted via: audiograbber 1.83.01
#
DISCID=12106d13
DTITLE=Various Artist - Promo Only Country Radio December 2007
DYEAR=2007
DGENRE=Country
TTITLE0=Gretchen Wilson - You Don't Have To Go Home
TTITLE1=Rascall Flatts - Winner At A Losing Game
TTITLE2=Flynnville Train - Tequila Sheila
TTITLE3=Rodney Atkins - Cleaning This Gun
TTITLE4=brad Paisley - Letter To Me
TTITLE5=Lady Antebellum - Love Don't Live Here
TTITLE6=Joe Nichols - Another Side Of You
TTITLE7=Crossin Dixon - Make You Mine
TTITLE8=Luke Bryan - We Rode In Trucks
TTITLE9=Halfway To Hazard - Devil And The Cross
TTITLE10=Shooter Jennings - Walk OF Life
TTITLE11=Martina McBride - For These Times
TTITLE12=Cross Canadian Ragweed - I Believe You
TTITLE13=Cole Deggs and The Lonesome - Girl Next Door
TTITLE14=Lee Brice - Happy Endings
TTITLE15=Billy Ray Cyrus feat. Miley Cyrus - Ready, Set, Don't Go
TTITLE16=Hal Ketchum - One More Midnight
TTITLE17=Kevin Sharp - Make A Wish
TTITLE18=Jeremy Boz - The Pearl
EXTD=
EXTT0=
EXTT1=
EXTT2=
EXTT3=
EXTT4=
EXTT5=
EXTT6=
EXTT7=
EXTT8=
EXTT9=
EXTT10=
EXTT11=
EXTT12=
EXTT13=
EXTT14=
EXTT15=
EXTT16=
EXTT17=
EXTT18=
PLAYORDER=
